<svg width="544" height="233" viewBox="0 0 544 233" fill="none" xmlns="http://www.w3.org/2000/svg">
<g clip-path="url(#clip0_694:22)">
<path opacity="0.5" fill-rule="evenodd" clip-rule="evenodd" d="M496.062 183.324H514.864L505.464 192.651H524.264L524.262 192.653H543.065L533.662 183.325L524.266 192.649L514.865 183.324H514.867L514.867 183.324H533.662H533.663H552.467L543.065 173.998L533.663 183.324L524.261 173.998L514.863 183.32L505.466 173.998L496.062 183.324Z" fill="#74AEB1"/>
<path fill-rule="evenodd" clip-rule="evenodd" d="M621.534 272.15C645.821 281.743 665.182 300.371 675.477 324.05L735.422 461.935C746.039 486.354 746.132 514.115 735.682 538.935L624.581 802.808L513.487 1066.66C503.042 1091.47 482.944 1111.25 457.739 1121.52L315.28 1179.56C290.817 1189.52 263.515 1189.73 239.216 1180.13L2.49578 1086.63C-21.8216 1077.03 -41.1984 1058.37 -51.4834 1034.65L-111.276 896.76C-121.857 872.359 -121.938 844.634 -111.5 819.843L110.721 292.051C121.163 267.25 141.252 247.479 166.448 237.208L308.69 179.22C333.159 169.245 360.469 169.035 384.776 178.635L621.534 272.15Z" fill="url(#paint0_linear_694:22)"/>
<path fill-rule="evenodd" clip-rule="evenodd" d="M384.104 185.571V158.141L398.332 171.856L384.104 185.571Z" fill="#FFDC00"/>
<path fill-rule="evenodd" clip-rule="evenodd" d="M384.104 213V185.571L398.332 199.286L384.104 213Z" fill="#FFDC00"/>
<path fill-rule="evenodd" clip-rule="evenodd" d="M412.561 185.571V158.141L426.79 171.855L412.561 185.571Z" fill="#FCB813"/>
<path fill-rule="evenodd" clip-rule="evenodd" d="M412.561 158.141V185.571L398.332 171.856L412.561 158.141Z" fill="#FFDC00"/>
<path fill-rule="evenodd" clip-rule="evenodd" d="M441.018 158.141V185.571L426.79 171.856L441.018 158.141Z" fill="#FFDC00"/>
<path fill-rule="evenodd" clip-rule="evenodd" d="M441.018 185.571V213.001L426.79 199.286L441.018 185.571Z" fill="#FFDC00"/>
<path fill-rule="evenodd" clip-rule="evenodd" d="M398.332 199.285V171.855L412.561 185.569L398.332 199.285Z" fill="#FFDC00"/>
<path fill-rule="evenodd" clip-rule="evenodd" d="M398.332 171.856V199.285L384.104 185.57L398.332 171.856Z" fill="#FFDC00"/>
<path fill-rule="evenodd" clip-rule="evenodd" d="M426.79 199.285V171.855L441.018 185.569L426.79 199.285Z" fill="#FCB813"/>
<path fill-rule="evenodd" clip-rule="evenodd" d="M426.79 171.855V199.285L412.561 185.57L426.79 171.855Z" fill="#FFDC00"/>
<path fill-rule="evenodd" clip-rule="evenodd" d="M412.561 213.001V185.571L426.79 199.284L412.561 213.001Z" fill="#FCB813"/>
<path fill-rule="evenodd" clip-rule="evenodd" d="M412.561 185.571V213.001L398.332 199.288L412.561 185.571Z" fill="#FFDC00"/>
<path fill-rule="evenodd" clip-rule="evenodd" d="M398.332 226.714V199.285L412.561 212.998L398.332 226.714Z" fill="#FFDC00"/>
<path fill-rule="evenodd" clip-rule="evenodd" d="M398.332 199.285V226.715L384.104 213.002L398.332 199.285Z" fill="#FFDC00"/>
<path fill-rule="evenodd" clip-rule="evenodd" d="M426.79 226.714V199.285L441.018 212.998L426.79 226.714Z" fill="#FCB813"/>
<path fill-rule="evenodd" clip-rule="evenodd" d="M426.79 199.285V226.714L412.561 213.002L426.79 199.285Z" fill="#FFDC00"/>
<path fill-rule="evenodd" clip-rule="evenodd" d="M426.79 226.716H398.332L412.56 213.001L426.79 226.716Z" fill="#FCB813"/>
<path fill-rule="evenodd" clip-rule="evenodd" d="M412.561 130.712V158.141L398.332 144.428L412.561 130.712Z" fill="#7BCC29"/>
<path fill-rule="evenodd" clip-rule="evenodd" d="M412.561 158.141V130.712L426.79 144.425L412.561 158.141Z" fill="#02B05F"/>
<path fill-rule="evenodd" clip-rule="evenodd" d="M426.899 116.997V144.426L412.67 130.713L426.899 116.997Z" fill="#7BCC29"/>
<path fill-rule="evenodd" clip-rule="evenodd" d="M426.79 144.426V116.997L441.018 130.712L426.79 144.426Z" fill="#02B05F"/>
<path fill-rule="evenodd" clip-rule="evenodd" d="M398.332 116.997V144.427L384.104 130.714L398.332 116.997Z" fill="#7BCC29"/>
<path fill-rule="evenodd" clip-rule="evenodd" d="M398.332 144.426V116.997L412.561 130.712L398.332 144.426Z" fill="#7BCC29"/>
<path fill-rule="evenodd" clip-rule="evenodd" d="M398.332 171.855V144.426L412.561 158.14L398.332 171.855Z" fill="#FFDC00"/>
<path fill-rule="evenodd" clip-rule="evenodd" d="M398.332 144.426V171.855L384.104 158.141L398.332 144.426Z" fill="#FFDC00"/>
<path fill-rule="evenodd" clip-rule="evenodd" d="M426.79 171.855V144.426L441.018 158.14L426.79 171.855Z" fill="#FCB813"/>
<path fill-rule="evenodd" clip-rule="evenodd" d="M426.899 144.531V171.961L412.67 158.246L426.899 144.531Z" fill="#FFDC00"/>
<path fill-rule="evenodd" clip-rule="evenodd" d="M408.903 219.665V245.798L395.589 232.733L408.903 219.665Z" fill="#02B05F"/>
<path fill-rule="evenodd" clip-rule="evenodd" d="M408.903 219.665V245.798L395.589 232.733L408.903 219.665Z" fill="#02B05F"/>
<path fill-rule="evenodd" clip-rule="evenodd" d="M395.589 206.831V232.964L382.275 219.899L395.589 206.831Z" fill="#02B05F"/>
<path fill-rule="evenodd" clip-rule="evenodd" d="M382.275 193.998V220.131L368.961 207.066L382.275 193.998Z" fill="#02B05F"/>
<path fill-rule="evenodd" clip-rule="evenodd" d="M368.961 181.164V207.297L355.646 194.232L368.961 181.164Z" fill="#02B05F"/>
<path fill-rule="evenodd" clip-rule="evenodd" d="M395.589 206.831V232.964L408.903 219.899L395.589 206.831Z" fill="#02B05F"/>
<path fill-rule="evenodd" clip-rule="evenodd" d="M382.275 193.998V220.131L395.589 207.066L382.275 193.998Z" fill="#02B05F"/>
<path fill-rule="evenodd" clip-rule="evenodd" d="M368.961 181.164V207.297L382.275 194.232L368.961 181.164Z" fill="#02B05F"/>
<path fill-rule="evenodd" clip-rule="evenodd" d="M408.903 245.332V219.665L422.218 232.497L408.903 245.332Z" fill="#018B46"/>
<path fill-rule="evenodd" clip-rule="evenodd" d="M422.218 206.831V232.498L408.903 219.666L422.218 206.831Z" fill="#02B05F"/>
<path fill-rule="evenodd" clip-rule="evenodd" d="M435.532 193.998V219.665L422.218 206.833L435.532 193.998Z" fill="#02B05F"/>
<path fill-rule="evenodd" clip-rule="evenodd" d="M448.846 181.164V206.831L435.532 193.999L448.846 181.164Z" fill="#02B05F"/>
<path fill-rule="evenodd" clip-rule="evenodd" d="M422.218 232.498V206.831L435.532 219.665L422.218 232.498Z" fill="#018B46"/>
<path fill-rule="evenodd" clip-rule="evenodd" d="M435.532 219.665V193.998L448.846 206.832L435.532 219.665Z" fill="#018B46"/>
<path fill-rule="evenodd" clip-rule="evenodd" d="M448.846 206.831V181.164L462.161 193.998L448.846 206.831Z" fill="#018B46"/>
<path fill-rule="evenodd" clip-rule="evenodd" d="M435.532 219.664V245.331L422.218 232.499L435.532 219.664Z" fill="#01A454"/>
<path fill-rule="evenodd" clip-rule="evenodd" d="M448.846 206.83V232.497L435.532 219.665L448.846 206.83Z" fill="#01A454"/>
<path fill-rule="evenodd" clip-rule="evenodd" d="M382.275 219.664V245.331L368.961 232.499L382.275 219.664Z" fill="#01A454"/>
<path fill-rule="evenodd" clip-rule="evenodd" d="M368.961 206.831V232.498L355.646 219.666L368.961 206.831Z" fill="#01A454"/>
<path fill-rule="evenodd" clip-rule="evenodd" d="M435.532 245.331V219.664L448.846 232.498L435.532 245.331Z" fill="#018A46"/>
<path fill-rule="evenodd" clip-rule="evenodd" d="M448.846 232.497V206.83L462.161 219.664L448.846 232.497Z" fill="#018A46"/>
<path fill-rule="evenodd" clip-rule="evenodd" d="M382.275 245.331V219.664L395.589 232.498L382.275 245.331Z" fill="#01A454"/>
<path fill-rule="evenodd" clip-rule="evenodd" d="M368.961 232.497V206.83L382.275 219.664L368.961 232.497Z" fill="#01A454"/>
<rect x="331.901" y="220.997" width="156.934" height="11" rx="5.5" fill="#A37300"/>
<path opacity="0.5" fill-rule="evenodd" clip-rule="evenodd" d="M181.273 163.118H191.597L186.435 168.24H196.759L196.758 168.241H207.083L201.92 163.118L196.76 168.239L191.598 163.118H191.599L191.599 163.118H201.92H201.92H212.247L207.083 157.997L201.92 163.118L196.758 157.997L191.597 163.116L186.436 157.997L181.273 163.118Z" fill="#74AEB1"/>
<path opacity="0.5" fill-rule="evenodd" clip-rule="evenodd" d="M280.34 127.509H295.482L287.912 135.02H303.053L303.051 135.022H318.195L310.622 127.509L303.055 135.019L295.484 127.509H295.485L295.485 127.509H310.622H310.623H325.768L318.195 119.997L310.623 127.508L303.051 119.997L295.482 127.506L287.913 119.998L280.34 127.509Z" fill="#74AEB1"/>
</g>
<defs>
<linearGradient id="paint0_linear_694:22" x1="812.731" y1="347.67" x2="454.356" y2="1254.99" gradientUnits="userSpaceOnUse">
<stop stop-color="#FBB818"/>
<stop offset="1" stop-color="#FBB715" stop-opacity="0.01"/>
</linearGradient>
<clipPath id="clip0_694:22">
<rect y="0.178467" width="544" height="232" rx="20" fill="white"/>
</clipPath>
</defs>
</svg>
