<svg width="139" height="72" viewBox="0 0 139 72" fill="none" xmlns="http://www.w3.org/2000/svg">
<path d="M58.5599 37.3461L58.9709 33.2309C56.0599 32.8861 54.3528 34.5914 53.1037 35.8367C51.9509 36.9857 51.3462 37.5324 50.1623 37.3922C48.9784 37.2519 48.4939 36.5762 47.5959 35.1842C46.6236 33.6757 45.2914 31.6103 42.3808 31.2655C39.4702 30.9207 37.7627 32.626 36.514 33.8713C35.3613 35.0203 34.7565 35.567 33.575 35.4271C32.3934 35.2871 31.9079 34.6112 31.0118 33.2195C30.0395 31.7115 28.7078 29.6457 25.7972 29.3008C22.8866 28.956 21.1791 30.6618 19.9323 31.9069C18.7795 33.0559 18.1753 33.6027 16.9932 33.4626C15.8112 33.3226 15.3257 32.6467 14.4301 31.2551C13.4578 29.7466 12.126 27.6812 9.21591 27.3365C6.30579 26.9917 4.5978 28.6974 3.35007 29.9424C2.19733 31.0914 1.59306 31.6382 0.411019 31.4981L-9.64044e-06 35.6133C2.91057 35.9581 4.6181 34.2523 5.86582 33.0073C7.01862 31.8578 7.62283 31.3116 8.80488 31.4516C9.98692 31.5916 10.472 32.2669 11.368 33.6592C12.3403 35.1671 13.6721 37.233 16.5827 37.5778C19.4932 37.9226 21.2008 36.2168 22.4481 34.9713C23.6008 33.8223 24.2046 33.276 25.3871 33.4161C26.5696 33.5562 27.0546 34.2314 27.9502 35.6236C28.9225 37.1321 30.2543 39.1975 33.1649 39.5423C36.0754 39.8871 37.7829 38.1818 39.0316 36.9365C40.1844 35.7869 40.7891 35.2408 41.9707 35.3807C43.1523 35.5207 43.6387 36.1962 44.5338 37.5883C45.5065 39.0969 46.8388 41.1622 49.7499 41.5071C52.6609 41.852 54.3679 40.1467 55.6171 38.9013C56.7699 37.7518 57.376 37.2058 58.5599 37.3461Z" fill="#FDBF00"/>
<path d="M57.5548 55.667L56.6645 52.3515C54.1587 53.1495 53.2587 55.085 52.5999 56.4991C51.9917 57.8045 51.6558 58.4455 50.6385 58.7695C49.6212 59.0935 49.0187 58.7514 47.8629 58.0078C46.6097 57.2031 44.893 56.1006 42.3872 56.8986C39.8814 57.6967 38.9815 59.6326 38.3242 61.0458C37.7161 62.3512 37.3805 62.992 36.3628 63.3162C35.3452 63.6403 34.7426 63.2982 33.5872 62.5545C32.3339 61.7493 30.6173 60.6472 28.1119 61.4452C25.6065 62.2431 24.7062 64.1791 24.0482 65.5926C23.44 66.8979 23.1044 67.5388 22.0867 67.863L22.977 71.1785C25.4828 70.3804 26.3827 68.4445 27.0409 67.0315C27.6491 65.7261 27.9845 65.0848 29.0022 64.7607C30.0199 64.4366 30.6222 64.7792 31.7779 65.5228C33.031 66.3271 34.7477 67.4296 37.2535 66.6315C39.7593 65.8335 40.6592 63.8976 41.3169 62.4843C41.9252 61.1793 42.2602 60.5381 43.2783 60.2139C44.2963 59.8896 44.8986 60.2323 46.054 60.976C47.3072 61.7807 49.0238 62.8828 51.5296 62.0848C54.0354 61.2867 54.9354 59.3512 55.5943 57.9375C56.1988 56.6333 56.5359 55.9915 57.5548 55.667Z" fill="#FFDA2D"/>
<path d="M64.8511 14.3025L65.3525 12.1516C64.7313 11.9799 64.5195 11.5817 64.1376 10.7689C63.7219 9.88646 63.1534 8.68184 61.6256 8.25946C60.0978 7.83707 59.0705 8.60049 58.3197 9.15904C57.6264 9.67452 57.2666 9.91475 56.6464 9.74328C56.0262 9.57181 55.8152 9.17377 55.4315 8.36083C55.017 7.48011 54.449 6.27395 52.9212 5.85156C51.3934 5.42918 50.3663 6.19435 49.6155 6.75263C48.9222 7.26811 48.5627 7.50841 47.9422 7.33687C47.3217 7.16533 47.1095 6.76696 46.7274 5.95414C46.3108 5.07316 45.7426 3.86834 44.2148 3.44596L43.7134 5.59682C44.3344 5.76849 44.5461 6.167 44.9283 6.97954C45.3431 7.86005 45.911 9.06622 47.4388 9.4886C48.9666 9.91098 49.9937 9.14608 50.7443 8.58747C51.4375 8.07226 51.7971 7.83169 52.4176 8.00323C53.0381 8.17477 53.2488 8.573 53.6325 9.38595C54.0496 10.2657 54.6165 11.473 56.1447 11.8955C57.673 12.318 58.6997 11.5527 59.4504 10.9944C60.1437 10.4792 60.5035 10.2387 61.1238 10.4102C61.744 10.5817 61.9566 10.9804 62.3386 11.7929C62.7554 12.6728 63.3233 13.8801 64.8511 14.3025Z" fill="#FFDA2D"/>
<path d="M8.49902 36.5196L5.44835 39.1901L7.90043 42.5125L10.9511 39.842L8.49902 36.5196Z" fill="#DA804E"/>
<path d="M63.3477 47.001L61.68 50.3186L64.7262 52.1348L66.3939 48.8173L63.3477 47.001Z" fill="#DA804E"/>
<path d="M45.0474 65.8297L43.3797 69.1473L46.4259 70.9635L48.0936 67.646L45.0474 65.8297Z" fill="#DA804E"/>
<path d="M69.5416 8.5296L67.738 9.69852L68.8113 11.6628L70.6149 10.4939L69.5416 8.5296Z" fill="#DA804E"/>
<path d="M59.4962 13.5932L57.6926 14.7621L58.7659 16.7264L60.5695 15.5575L59.4962 13.5932Z" fill="#DA804E"/>
<path d="M23.4523 45.8219C24.0031 45.8871 24.5594 45.773 25.0507 45.494C25.5419 45.215 25.9462 44.7835 26.2124 44.2543C26.4785 43.725 26.5946 43.1217 26.5459 42.5206C26.4972 41.9195 26.2859 41.3476 25.9388 40.8773C25.5917 40.407 25.1243 40.0593 24.5957 39.8783C24.0672 39.6972 23.5012 39.6909 22.9694 39.8602C22.4376 40.0295 21.9638 40.3667 21.6079 40.8293C21.2521 41.2918 21.0302 41.8589 20.9702 42.4588C20.9304 42.8571 20.963 43.2601 21.0662 43.6447C21.1693 44.0293 21.3411 44.388 21.5716 44.7003C21.8021 45.0126 22.0868 45.2724 22.4095 45.4648C22.7322 45.6573 23.0866 45.7786 23.4523 45.8219Z" fill="#FCB813"/>
<path d="M49.8918 14.7863C50.1646 14.8618 50.453 14.8425 50.7205 14.731C50.988 14.6195 51.2226 14.4208 51.3945 14.1599C51.5665 13.899 51.6682 13.5877 51.6867 13.2653C51.7052 12.943 51.6396 12.6241 51.4984 12.3489C51.3572 12.0738 51.1466 11.8548 50.8932 11.7196C50.6399 11.5845 50.3552 11.5392 50.0751 11.5896C49.7951 11.64 49.5322 11.7837 49.3199 12.0026C49.1075 12.2215 48.9552 12.5058 48.8821 12.8195C48.8336 13.0277 48.8212 13.2437 48.8457 13.4552C48.8702 13.6668 48.931 13.8696 49.0248 14.0523C49.1185 14.2349 49.2433 14.3937 49.3921 14.5197C49.5409 14.6456 49.7106 14.7362 49.8918 14.7863Z" fill="#FCB813"/>
<path d="M48.548 3.75415C48.8208 3.82958 49.1081 3.8152 49.3734 3.71283C49.6387 3.61046 49.8702 3.4247 50.0386 3.17903C50.207 2.93337 50.3047 2.63884 50.3194 2.33269C50.3341 2.02654 50.2651 1.72253 50.1211 1.4591C49.9771 1.19566 49.7647 0.984645 49.5106 0.852726C49.2565 0.720806 48.9722 0.673912 48.6936 0.717974C48.415 0.762036 48.1547 0.895076 47.9456 1.10027C47.7364 1.30546 47.5879 1.57358 47.5187 1.87074C47.4727 2.06801 47.4628 2.27322 47.4897 2.47464C47.5165 2.67606 47.5795 2.86975 47.6751 3.04464C47.7707 3.21954 47.897 3.37221 48.0467 3.49395C48.1965 3.61569 48.3668 3.70411 48.548 3.75415Z" fill="#FCB813"/>
<path d="M51.3555 27.806C51.9063 27.8713 52.4606 27.7759 52.9484 27.532C53.4362 27.288 53.8355 26.9065 54.0958 26.4355C54.3562 25.9646 54.4658 25.4255 54.4109 24.8863C54.356 24.3472 54.1391 23.8322 53.7875 23.4065C53.4359 22.9808 52.9655 22.6635 52.4357 22.4948C51.9059 22.3261 51.3406 22.3135 50.8112 22.4586C50.2817 22.6037 49.812 22.9001 49.4614 23.3101C49.1108 23.7201 48.8951 24.2255 48.8415 24.7622C48.7696 25.482 48.9941 26.207 49.4655 26.7778C49.937 27.3487 50.6168 27.7185 51.3555 27.806Z" fill="#FCB813"/>
<path d="M64.14 64.8885C64.6034 64.7409 65.0194 64.4585 65.3352 64.0769C65.6511 63.6953 65.8526 63.2317 65.9144 62.7448C65.9762 62.2578 65.8954 61.7694 65.6823 61.3412C65.4692 60.913 65.1333 60.5644 64.7171 60.3393C64.3009 60.1142 63.8231 60.0228 63.3441 60.0767C62.8652 60.1306 62.4065 60.3273 62.0262 60.6419C61.6459 60.9566 61.361 61.3751 61.2075 61.8445C61.0541 62.3139 61.039 62.8132 61.1641 63.2791C61.3318 63.9039 61.7396 64.4244 62.2977 64.7263C62.8558 65.0281 63.5185 65.0865 64.14 64.8885Z" fill="#FCB813"/>
<path d="M136.125 22.2897L133.912 25.2164C132.243 27.4242 127.765 26.4113 123.909 22.954C120.053 19.4967 118.281 14.9042 119.95 12.6961L122.163 9.76964L136.125 22.2897Z" fill="#FFDE55"/>
<path d="M122.162 9.76882C123.831 7.56098 128.31 8.57402 132.166 12.0316C136.022 15.4892 137.794 20.0822 136.125 22.29C134.455 24.4981 129.976 23.4851 126.121 20.0275C122.265 16.5697 120.492 11.9769 122.162 9.76882Z" fill="#FFEB99"/>
<path d="M130.649 14.0375C132.279 15.4987 135.33 19.2518 134.283 20.6372C133.235 22.0228 129.505 19.6946 127.638 18.0205C125.771 16.3465 122.957 12.8062 124.005 11.4209C125.052 10.0352 129.02 12.5763 130.649 14.0375Z" fill="#FFF5CA"/>
<path d="M82.6666 49.6281L78.5106 50.3314C75.3753 50.8618 71.9989 45.982 70.9688 39.4318C69.939 32.8818 71.6457 27.1418 74.781 26.6114L78.9369 25.9081L82.6666 49.6281Z" fill="#FFB600"/>
<path d="M82.7145 49.59L78.5179 50.3027C75.4753 50.8192 72.2108 46.2922 71.0413 40.0713C73.6193 38.787 76.1132 38.3558 77.9825 38.106C78.9022 37.983 79.9395 37.3722 80.6729 36.5652L82.7145 49.59Z" fill="#FF9D00"/>
<path d="M78.905 25.7893C82.0631 25.2524 85.4596 30.1615 86.4918 36.754C87.524 43.3463 85.8008 49.1257 82.6428 49.6626C79.4848 50.1995 76.0881 45.2901 75.056 38.6979C74.0237 32.1054 75.747 26.3262 78.905 25.7893Z" fill="#FFCD00"/>
<path d="M78.0707 38.3039C79.4121 38.1068 81.0154 36.8821 81.5718 35.5383C82.4417 33.4376 83.9049 31.8374 85.0148 30.8414C85.7802 32.5167 86.3725 34.5261 86.6942 36.7293C87.651 43.2829 85.8498 49.0663 82.6705 49.6467C79.4959 50.2264 76.1474 45.3969 75.1858 38.8558C76.243 38.5924 77.2213 38.4286 78.0707 38.3039Z" fill="#FFB600"/>
<path d="M83.691 37.1707C84.0827 39.9552 84.0446 46.1186 82.0268 46.4994C80.0092 46.88 78.3392 41.4552 77.8902 38.2653C77.4412 35.075 77.5364 29.3172 79.5542 28.9364C81.5722 28.5558 83.2989 34.3861 83.691 37.1707Z" fill="#FFDE55"/>
<path d="M81.5507 35.3684C81.9155 34.5202 82.3744 33.749 82.8669 33.0633C83.338 34.4994 83.6708 36.0058 83.8126 37.0707C84.1844 39.8722 84.0898 46.0831 82.0408 46.4885C79.992 46.8938 78.3483 41.4456 77.922 38.2362C79.2993 38.012 80.9603 36.7411 81.5507 35.3684Z" fill="#FFCD00"/>
</svg>
