<svg width="120" height="58" viewBox="0 0 120 58" fill="none" xmlns="http://www.w3.org/2000/svg">
<path d="M73.129 29.967L72.8 26.6733C75.13 26.3972 76.4962 27.7622 77.4961 28.7589C78.4187 29.6786 78.9028 30.1162 79.8503 30.0039C80.7979 29.8916 81.1857 29.3508 81.9045 28.2367C82.6827 27.0293 83.749 25.3761 86.0786 25.1002C88.4082 24.8242 89.7749 26.1891 90.7744 27.1859C91.697 28.1055 92.181 28.5431 93.1268 28.431C94.0725 28.319 94.461 27.7781 95.1783 26.6641C95.9565 25.4571 97.0224 23.8036 99.3521 23.5277C101.682 23.2517 103.048 24.617 104.046 25.6135C104.969 26.5332 105.453 26.9708 106.399 26.8587C107.345 26.7466 107.733 26.2057 108.45 25.0918C109.228 23.8844 110.294 22.2313 112.624 21.9554C114.953 21.6794 116.32 23.0447 117.319 24.0412C118.241 24.9608 118.725 25.3984 119.671 25.2863L120 28.5801C117.67 28.8561 116.304 27.4908 115.305 26.4943C114.382 25.5742 113.899 25.137 112.953 25.2491C112.006 25.3612 111.618 25.9017 110.901 27.016C110.123 28.223 109.057 29.8765 106.727 30.1525C104.398 30.4285 103.031 29.0632 102.033 28.0662C101.11 27.1466 100.627 26.7093 99.6803 26.8215C98.7338 26.9336 98.3456 27.4741 97.6287 28.5884C96.8506 29.7958 95.7846 31.4489 93.455 31.7249C91.1254 32.0008 89.7587 30.636 88.7593 29.6392C87.8366 28.7191 87.3526 28.2819 86.4069 28.394C85.4611 28.506 85.0718 29.0466 84.3553 30.1609C83.5768 31.3683 82.5104 33.0215 80.1805 33.2975C77.8505 33.5735 76.4842 32.2086 75.4843 31.2118C74.5617 30.2918 74.0766 29.8547 73.129 29.967Z" fill="#FDBF00"/>
<path d="M73.9335 44.6308L74.6461 41.9771C76.6517 42.6159 77.3721 44.165 77.8993 45.2969C78.3861 46.3417 78.655 46.8548 79.4692 47.1141C80.2834 47.3734 80.7657 47.0996 81.6908 46.5044C82.6939 45.8603 84.0679 44.9779 86.0735 45.6167C88.0792 46.2554 88.7995 47.8049 89.3255 48.936C89.8123 49.9808 90.0809 50.4938 90.8954 50.7532C91.7099 51.0126 92.1923 50.7388 93.117 50.1436C94.1202 49.4991 95.4941 48.617 97.4994 49.2557C99.5047 49.8943 100.225 51.4439 100.752 52.5752C101.239 53.62 101.507 54.133 102.322 54.3924L101.609 57.0461C99.6037 56.4074 98.8834 54.8579 98.3566 53.7269C97.8699 52.6821 97.6013 52.1688 96.7868 51.9094C95.9723 51.65 95.4902 51.9242 94.5652 52.5194C93.5622 53.1631 92.1882 54.0456 90.1825 53.4068C88.1769 52.768 87.4566 51.2186 86.9302 50.0873C86.4433 49.0429 86.1752 48.5297 85.3603 48.2702C84.5455 48.0106 84.0634 48.2849 83.1387 48.8801C82.1356 49.5242 80.7616 50.4064 78.756 49.7676C76.7504 49.1288 76.03 47.5797 75.5027 46.4481C75.0188 45.4043 74.749 44.8906 73.9335 44.6308Z" fill="#FFDA2D"/>
<path d="M68.0936 11.5225L67.6923 9.80091C68.1896 9.66345 68.359 9.34471 68.6647 8.69419C68.9974 7.98787 69.4525 7.0237 70.6753 6.68563C71.8982 6.34755 72.7204 6.95859 73.3213 7.40565C73.8763 7.81823 74.1642 8.01051 74.6606 7.87327C75.1571 7.73603 75.326 7.41744 75.6331 6.76676C75.9648 6.06184 76.4194 5.09644 77.6422 4.75836C78.8651 4.42029 79.6872 5.03273 80.2881 5.47957C80.843 5.89215 81.1308 6.08449 81.6274 5.94719C82.124 5.80989 82.2939 5.49104 82.5998 4.84047C82.9332 4.13533 83.388 3.171 84.6108 2.83292L85.0121 4.55446C84.5151 4.69187 84.3457 5.01083 84.0398 5.66119C83.7077 6.36594 83.2532 7.33135 82.0303 7.66943C80.8075 8.0075 79.9854 7.39528 79.3847 6.94816C78.8298 6.53579 78.542 6.34324 78.0453 6.48054C77.5487 6.61784 77.3801 6.93659 77.073 7.58727C76.7391 8.29138 76.2854 9.2577 75.0622 9.59588C73.8389 9.93407 73.0172 9.32152 72.4163 8.87468C71.8614 8.46231 71.5734 8.26981 71.077 8.40706C70.5806 8.5443 70.4104 8.86348 70.1046 9.51378C69.771 10.2181 69.3165 11.1844 68.0936 11.5225Z" fill="#FFDA2D"/>
<path d="M113.198 29.3058L115.639 31.4433L113.677 34.1025L111.235 31.9651L113.198 29.3058Z" fill="#DA804E"/>
<path d="M69.2969 37.6935L70.6317 40.3489L68.1935 41.8026L66.8587 39.1473L69.2969 37.6935Z" fill="#DA804E"/>
<path d="M83.9442 52.765L85.279 55.4204L82.8408 56.8741L81.506 54.2187L83.9442 52.765Z" fill="#DA804E"/>
<path d="M64.3394 6.9024L65.783 7.838L64.9239 9.41021L63.4803 8.47461L64.3394 6.9024Z" fill="#DA804E"/>
<path d="M72.3795 10.9557L73.8231 11.8913L72.9641 13.4635L71.5204 12.5279L72.3795 10.9557Z" fill="#DA804E"/>
<path d="M101.229 36.7514C100.788 36.8036 100.343 36.7123 99.9496 36.489C99.5563 36.2656 99.2327 35.9203 99.0197 35.4967C98.8067 35.0731 98.7138 34.5902 98.7528 34.1091C98.7917 33.628 98.9608 33.1702 99.2387 32.7938C99.5165 32.4173 99.8906 32.1391 100.314 31.9942C100.737 31.8492 101.19 31.8442 101.615 31.9797C102.041 32.1152 102.42 32.3851 102.705 32.7553C102.99 33.1256 103.168 33.5794 103.216 34.0596C103.247 34.3784 103.221 34.701 103.139 35.0088C103.056 35.3166 102.919 35.6037 102.734 35.8537C102.55 36.1037 102.322 36.3116 102.064 36.4656C101.805 36.6197 101.522 36.7168 101.229 36.7514Z" fill="#FCB813"/>
<path d="M80.067 11.9093C79.8486 11.9697 79.6178 11.9544 79.4037 11.8651C79.1896 11.7759 79.0019 11.6168 78.8642 11.408C78.7266 11.1991 78.6452 10.95 78.6304 10.6919C78.6156 10.4339 78.668 10.1787 78.7811 9.95848C78.8941 9.73827 79.0627 9.56299 79.2655 9.4548C79.4682 9.34662 79.6961 9.31039 79.9203 9.35071C80.1444 9.39102 80.3548 9.50607 80.5247 9.68129C80.6947 9.85652 80.8166 10.084 80.8751 10.3351C80.914 10.5018 80.9239 10.6747 80.9043 10.844C80.8847 11.0133 80.836 11.1757 80.761 11.3218C80.6859 11.468 80.586 11.5951 80.4669 11.6959C80.3479 11.7967 80.212 11.8692 80.067 11.9093Z" fill="#FCB813"/>
<path d="M81.1425 3.07924C80.9241 3.13961 80.6942 3.1281 80.4818 3.04616C80.2695 2.96423 80.0842 2.81554 79.9494 2.61891C79.8146 2.42229 79.7364 2.18655 79.7247 1.94151C79.7129 1.69647 79.7681 1.45314 79.8834 1.24229C79.9986 1.03144 80.1687 0.862538 80.372 0.756951C80.5754 0.651363 80.803 0.613829 81.0259 0.649096C81.2489 0.684363 81.4573 0.790847 81.6247 0.955081C81.792 1.11932 81.911 1.33392 81.9664 1.57176C82.0032 1.72966 82.011 1.89391 81.9896 2.05512C81.9681 2.21634 81.9176 2.37136 81.8411 2.51135C81.7646 2.65133 81.6636 2.77354 81.5437 2.87098C81.4238 2.96841 81.2875 3.03918 81.1425 3.07924Z" fill="#FCB813"/>
<path d="M78.8953 22.3311C78.4545 22.3834 78.0108 22.307 77.6203 22.1118C77.2299 21.9165 76.9103 21.6111 76.702 21.2342C76.4936 20.8573 76.4058 20.4258 76.4498 19.9942C76.4937 19.5627 76.6673 19.1505 76.9487 18.8098C77.2301 18.4691 77.6067 18.2151 78.0307 18.0801C78.4547 17.9451 78.9072 17.935 79.331 18.0511C79.7547 18.1673 80.1307 18.4044 80.4113 18.7326C80.6919 19.0608 80.8646 19.4653 80.9075 19.8949C80.9651 20.471 80.7854 21.0513 80.408 21.5082C80.0307 21.9651 79.4865 22.2611 78.8953 22.3311Z" fill="#FCB813"/>
<path d="M68.6628 52.0112C68.2919 51.8931 67.9589 51.667 67.7061 51.3616C67.4533 51.0562 67.292 50.6851 67.2426 50.2954C67.1931 49.9056 67.2578 49.5147 67.4284 49.172C67.599 48.8293 67.8678 48.5502 68.2009 48.37C68.534 48.1899 68.9164 48.1167 69.2998 48.1599C69.6832 48.203 70.0503 48.3604 70.3547 48.6123C70.6591 48.8642 70.8871 49.1991 71.0099 49.5748C71.1327 49.9506 71.1449 50.3501 71.0447 50.7231C70.9104 51.2231 70.5841 51.6398 70.1374 51.8814C69.6907 52.1229 69.1603 52.1697 68.6628 52.0112Z" fill="#FCB813"/>
<path d="M12.5645 16.1833L14.5774 18.2812C16.0959 19.864 15.0863 23.6967 12.3224 26.8421C9.55854 29.9873 6.08698 31.254 4.56834 29.6712L2.55562 27.5733L12.5645 16.1833Z" fill="#FFDE55"/>
<path d="M2.55489 27.5737C1.03641 25.9909 2.04613 22.1578 4.81018 19.0125C7.5743 15.867 11.0462 14.6004 12.5647 16.1832C14.0833 17.766 13.0736 21.5991 10.3095 24.7444C7.54527 27.8899 4.07353 29.1565 2.55489 27.5737Z" fill="#FFEB99"/>
<path d="M6.19022 20.4505C7.35836 19.121 10.291 16.6927 11.2438 17.6858C12.1968 18.679 10.2679 21.7827 8.92967 23.3057C7.59139 24.8288 4.82888 27.0635 3.87605 26.0704C2.92306 25.0771 5.02209 21.7799 6.19022 20.4505Z" fill="#FFF5CA"/>
<path d="M57.6749 33.7671L54.3484 34.33C51.839 34.7546 49.1365 30.8488 48.312 25.606C47.4877 20.3635 48.8538 15.7692 51.3633 15.3446L54.6897 14.7817L57.6749 33.7671Z" fill="#FFB600"/>
<path d="M57.7131 33.7371L54.3541 34.3075C51.9188 34.7209 49.306 31.0975 48.3699 26.1183C50.4333 25.0904 52.4294 24.7453 53.9256 24.5453C54.6618 24.4469 55.492 23.958 56.079 23.312L57.7131 33.7371Z" fill="#FF9D00"/>
<path d="M54.664 14.6877C57.1917 14.258 59.9102 18.1872 60.7365 23.4638C61.5626 28.7402 60.1834 33.366 57.6557 33.7957C55.1281 34.2254 52.4094 30.296 51.5833 25.0196C50.757 19.743 52.1364 15.1174 54.664 14.6877Z" fill="#FFCD00"/>
<path d="M53.9962 24.7043C55.0699 24.5465 56.3532 23.5663 56.7985 22.4907C57.4948 20.8094 58.6659 19.5285 59.5542 18.7313C60.1668 20.0723 60.6409 21.6805 60.8984 23.444C61.6643 28.6895 60.2225 33.3184 57.6779 33.783C55.137 34.247 52.4568 30.3815 51.6872 25.1461C52.5333 24.9352 53.3164 24.8041 53.9962 24.7043Z" fill="#FFB600"/>
<path d="M58.4946 23.7962C58.8082 26.0249 58.7777 30.9581 57.1626 31.2629C55.5478 31.5676 54.2111 27.2256 53.8517 24.6724C53.4923 22.1189 53.5686 17.5104 55.1836 17.2056C56.7988 16.9009 58.1808 21.5675 58.4946 23.7962Z" fill="#FFDE55"/>
<path d="M56.7816 22.3538C57.0737 21.6749 57.441 21.0576 57.8351 20.5088C58.2122 21.6583 58.4786 22.8639 58.592 23.7163C58.8897 25.9586 58.8139 30.9298 57.1739 31.2543C55.534 31.5787 54.2184 27.218 53.8773 24.6492C54.9796 24.4697 56.3091 23.4525 56.7816 22.3538Z" fill="#FFCD00"/>
</svg>
