<svg width="24" height="25" viewBox="0 0 24 25" fill="none" xmlns="http://www.w3.org/2000/svg">
<path fill-rule="evenodd" clip-rule="evenodd" d="M7.7587 4.17847H16.2413C17.0463 4.17845 17.7106 4.17844 18.2518 4.22266C18.8139 4.26859 19.3306 4.36715 19.816 4.61444C20.5686 4.99794 21.1805 5.60986 21.564 6.36251C21.8113 6.84784 21.9099 7.36454 21.9558 7.92664C22 8.46783 22 9.13219 22 9.93714V14.4198C22 15.2248 22 15.8891 21.9558 16.4303C21.9099 16.9924 21.8113 17.5091 21.564 17.9944C21.1805 18.7471 20.5686 19.359 19.816 19.7425C19.3306 19.9898 18.8139 20.0884 18.2518 20.1343C17.7106 20.1785 17.0463 20.1785 16.2413 20.1785H7.75873C6.95374 20.1785 6.28938 20.1785 5.74818 20.1343C5.18608 20.0884 4.66937 19.9898 4.18404 19.7425C3.43139 19.359 2.81947 18.7471 2.43597 17.9944C2.18868 17.5091 2.09012 16.9924 2.04419 16.4303C1.99998 15.8891 1.99999 15.2247 2 14.4198V9.93717C1.99999 9.1322 1.99998 8.46784 2.04419 7.92664C2.09012 7.36455 2.18868 6.84784 2.43597 6.36251C2.81947 5.60986 3.43139 4.99794 4.18404 4.61444C4.66938 4.36715 5.18608 4.26859 5.74818 4.22266C6.28937 4.17844 6.95373 4.17845 7.7587 4.17847ZM5.91104 6.21602C5.47262 6.25184 5.24842 6.31677 5.09202 6.39645C4.7157 6.5882 4.40973 6.89416 4.21799 7.27049C4.1383 7.42689 4.07337 7.65109 4.03755 8.08951C4.00078 8.5396 4 9.12189 4 9.97847V14.3785C4 15.235 4.00078 15.8173 4.03755 16.2674C4.07337 16.7058 4.1383 16.9301 4.21799 17.0865C4.40973 17.4628 4.7157 17.7687 5.09202 17.9605C5.24842 18.0402 5.47262 18.1051 5.91104 18.1409C6.36113 18.1777 6.94342 18.1785 7.8 18.1785H16.2C17.0566 18.1785 17.6389 18.1777 18.089 18.1409C18.5274 18.1051 18.7516 18.0402 18.908 17.9605C19.2843 17.7687 19.5903 17.4628 19.782 17.0865C19.8617 16.9301 19.9266 16.7058 19.9625 16.2674C19.9992 15.8173 20 15.235 20 14.3785V9.97847C20 9.12189 19.9992 8.5396 19.9625 8.08951C19.9266 7.65109 19.8617 7.42689 19.782 7.27049C19.5903 6.89416 19.2843 6.5882 18.908 6.39645C18.7516 6.31677 18.5274 6.25184 18.089 6.21602C17.6389 6.17925 17.0566 6.17847 16.2 6.17847H7.8C6.94342 6.17847 6.36113 6.17925 5.91104 6.21602Z" fill="#76B0B1"/>
<path fill-rule="evenodd" clip-rule="evenodd" d="M6.17548 8.61275C6.4879 8.15733 7.11036 8.0414 7.56578 8.35382L11.4344 11.0077C11.7753 11.2415 12.2249 11.2415 12.5658 11.0077L16.4344 8.35382C16.8898 8.0414 17.5123 8.15733 17.8247 8.61275C18.1371 9.06817 18.0212 9.69064 17.5658 10.0031L13.6972 12.6569C12.6745 13.3585 11.3257 13.3585 10.303 12.6569L6.43441 10.0031C5.97898 9.69064 5.86305 9.06817 6.17548 8.61275Z" fill="#76B0B1"/>
</svg>
