<svg width="17" height="18" viewBox="0 0 17 18" fill="none" xmlns="http://www.w3.org/2000/svg">
<g clip-path="url(#clip0_681:1138)">
<path d="M17 3.70074C16.3678 3.99436 15.6942 4.18899 14.9919 4.28349C15.7144 3.82674 16.2658 3.10899 16.5251 2.24386C15.8514 2.66911 15.1077 2.96949 14.3151 3.13711C13.6754 2.41599 12.7638 1.96936 11.7693 1.96936C9.83981 1.96936 8.28644 3.62761 8.28644 5.66049C8.28644 5.95299 8.30981 6.23424 8.36719 6.50199C5.46975 6.35236 2.90594 4.88199 1.18362 2.64211C0.882937 3.19449 0.706563 3.82674 0.706563 4.50736C0.706563 5.78536 1.32813 6.91824 2.25463 7.57411C1.69469 7.56286 1.14538 7.39074 0.68 7.11961C0.68 7.13086 0.68 7.14549 0.68 7.16011C0.68 8.95336 1.88806 10.4429 3.47225 10.786C3.18856 10.8681 2.87937 10.9075 2.5585 10.9075C2.33538 10.9075 2.11012 10.894 1.89869 10.8445C2.35025 12.3059 3.63163 13.3802 5.15525 13.4151C3.9695 14.3972 2.46394 14.989 0.834063 14.989C0.54825 14.989 0.274125 14.9755 0 14.9384C1.54381 15.9925 3.37344 16.5944 5.3465 16.5944C11.7597 16.5944 15.266 10.9694 15.266 6.09361C15.266 5.93049 15.2607 5.77299 15.2533 5.61661C15.9449 5.09686 16.5261 4.44774 17 3.70074Z" fill="#292929"/>
</g>
<defs>
<clipPath id="clip0_681:1138">
<rect width="17" height="18" fill="white" transform="translate(0 0.28186)"/>
</clipPath>
</defs>
</svg>
