<svg width="17" height="18" viewBox="0 0 17 18" fill="none" xmlns="http://www.w3.org/2000/svg">
<g clip-path="url(#clip0_681:1130)">
<path d="M8.50212 0.28186L8.49788 0.28186C3.81119 0.28186 1.35356e-10 4.09411 3.01797e-10 8.78186C3.67815e-10 10.6412 0.59925 12.3646 1.61819 13.7639L0.558875 16.9217L3.82606 15.8772C5.17013 16.7676 6.77344 17.2819 8.50212 17.2819C13.1888 17.2819 17 13.4685 17 8.78186C17 4.09517 13.1888 0.28186 8.50212 0.28186Z" fill="#292929"/>
<path d="M13.4481 12.2849C13.243 12.864 12.4291 13.3442 11.78 13.4845C11.3358 13.579 10.7557 13.6545 8.80283 12.8448C6.3049 11.81 4.69627 9.27166 4.5709 9.10697C4.45084 8.94228 3.56152 7.7629 3.56152 6.54315C3.56152 5.3234 4.18096 4.72946 4.43065 4.47446C4.63571 4.26515 4.97465 4.16953 5.29977 4.16953C5.40496 4.16953 5.49952 4.17484 5.58452 4.17909C5.83421 4.18971 5.95958 4.20459 6.12427 4.59878C6.32933 5.09284 6.82871 6.31259 6.88821 6.43797C6.94877 6.56334 7.00933 6.73334 6.92433 6.89803C6.84465 7.06803 6.77452 7.14347 6.64915 7.28797C6.52377 7.43247 6.40477 7.54297 6.2794 7.69809C6.16465 7.83303 6.03502 7.97753 6.17952 8.22722C6.32402 8.47159 6.8234 9.28653 7.55865 9.94103C8.50746 10.7857 9.27671 11.0556 9.55189 11.1703C9.75696 11.2553 10.0013 11.2352 10.1511 11.0758C10.3413 10.8707 10.5761 10.5307 10.8152 10.196C10.9852 9.95591 11.1998 9.92616 11.4251 10.0112C11.6546 10.0908 12.869 10.6912 13.1187 10.8155C13.3684 10.9408 13.5331 11.0003 13.5936 11.1055C13.6531 11.2107 13.6531 11.7048 13.4481 12.2849Z" fill="#FFDC00"/>
</g>
<defs>
<clipPath id="clip0_681:1130">
<rect width="17" height="17" fill="white" transform="translate(0 0.28186)"/>
</clipPath>
</defs>
</svg>
